<svg xmlns="http://www.w3.org/2000/svg" width="26" height="26" viewBox="0 0 26 26"><g transform="translate(-789 -571)"><circle cx="13" cy="13" r="13" transform="translate(789 571)" fill="#888"/><path d="M10.154,1.5H4.022A1.025,1.025,0,0,0,3,2.522V9.676H4.022V2.522h6.132Zm1.533,2.044H6.066A1.025,1.025,0,0,0,5.044,4.566V11.72a1.025,1.025,0,0,0,1.022,1.022h5.621a1.025,1.025,0,0,0,1.022-1.022V4.566A1.025,1.025,0,0,0,11.687,3.544Zm0,8.176H6.066V4.566h5.621Z" transform="translate(794.546 576.879)" fill="#fff"/></g></svg>