<svg xmlns="http://www.w3.org/2000/svg" xmlns:xlink="http://www.w3.org/1999/xlink" width="27" height="26" viewBox="0 0 27 26"><defs><linearGradient id="a" x1=".5" x2=".5" y2="1" gradientUnits="objectBoundingBox"><stop offset="0" stop-color="#003cff"/><stop offset=".31" stop-color="#b52799"/><stop offset=".664" stop-color="#d50f60"/><stop offset="1" stop-color="#ffe923"/></linearGradient></defs><g transform="translate(-721 -571)"><ellipse cx="13.5" cy="13" fill="url(#a)" rx="13.5" ry="13" transform="translate(721 571)"/><path fill="#fff" fill-rule="evenodd" d="M6.1,1.084a18.7,18.7,0,0,1,2.44.068,3.144,3.144,0,0,1,1.152.2,2.38,2.38,0,0,1,1.152,1.152,3.144,3.144,0,0,1,.2,1.152c0,.61.068.813.068,2.44a18.7,18.7,0,0,1-.068,2.44,3.144,3.144,0,0,1-.2,1.152,2.38,2.38,0,0,1-1.152,1.152,3.144,3.144,0,0,1-1.152.2c-.61,0-.813.068-2.44.068a18.7,18.7,0,0,1-2.44-.068,3.144,3.144,0,0,1-1.152-.2A2.38,2.38,0,0,1,1.356,9.692a3.144,3.144,0,0,1-.2-1.152c0-.61-.068-.813-.068-2.44a18.7,18.7,0,0,1,.068-2.44,3.144,3.144,0,0,1,.2-1.152A2.434,2.434,0,0,1,1.83,1.83a1.146,1.146,0,0,1,.678-.474,3.144,3.144,0,0,1,1.152-.2A18.7,18.7,0,0,1,6.1,1.084M6.1,0A20.027,20.027,0,0,0,3.592.068,4.184,4.184,0,0,0,2.1.339a2.653,2.653,0,0,0-1.084.678A2.653,2.653,0,0,0,.339,2.1,3.088,3.088,0,0,0,.068,3.592,20.027,20.027,0,0,0,0,6.1,20.027,20.027,0,0,0,.068,8.608,4.184,4.184,0,0,0,.339,10.1a2.653,2.653,0,0,0,.678,1.084,2.653,2.653,0,0,0,1.084.678,4.184,4.184,0,0,0,1.491.271A20.027,20.027,0,0,0,6.1,12.2a20.027,20.027,0,0,0,2.508-.068,4.184,4.184,0,0,0,1.491-.271A2.844,2.844,0,0,0,11.861,10.1a4.184,4.184,0,0,0,.271-1.491c0-.678.068-.881.068-2.508a20.027,20.027,0,0,0-.068-2.508A4.184,4.184,0,0,0,11.861,2.1a2.653,2.653,0,0,0-.678-1.084A2.653,2.653,0,0,0,10.1.339,4.184,4.184,0,0,0,8.608.068,20.027,20.027,0,0,0,6.1,0m0,2.982A3.068,3.068,0,0,0,2.982,6.1,3.118,3.118,0,1,0,6.1,2.982m0,5.151A2,2,0,0,1,4.067,6.1,2,2,0,0,1,6.1,4.067,2,2,0,0,1,8.133,6.1,2,2,0,0,1,6.1,8.133M9.353,2.1a.746.746,0,1,0,.746.746A.752.752,0,0,0,9.353,2.1" transform="translate(728.479 577.55)"/></g></svg>