<svg xmlns="http://www.w3.org/2000/svg" xmlns:xlink="http://www.w3.org/1999/xlink" width="179.047" height="69.993" viewBox="0 0 179.047 69.993"><defs><linearGradient id="a" x1="0.5" x2="0.5" y2="1" gradientUnits="objectBoundingBox"><stop offset="0" stop-color="#37a5f9"/><stop offset="1" stop-color="#324ca1"/></linearGradient></defs><g transform="translate(-33.979 -238.372)"><text transform="translate(47.701 273.372)" fill="#949494" font-size="32" font-family="SegoeUI, Segoe UI"><tspan x="0" y="0">POS TIVE</tspan></text><text transform="translate(44.679 300.365)" fill="#3363bb" font-size="30" font-family="SegoeUI, Segoe UI"><tspan x="0" y="0">PAK STAN</tspan></text><path d="M213.026,343.709H33.979s38.284-9.536,57.426-9.536c22.058,0,34.889-.369,79.961,0C189.306,334.32,213.026,338.859,213.026,343.709Z" transform="translate(0 -62.219)" fill="#f4f4f4"/><path d="M14.843,48.319l8.163-2.565-1.341,3.964L13.91,52.343Zm4.343-16.962L0,31.328,3.791,25.4H20.763L25.509,7.451l7.632-2.571L28.037,25.4H45.912l-3.54,6-15.821-.025L23.214,44.782l-8.222,2.432ZM26.83,2.428,34.452,0,33.3,3.8l-7.7,2.861Z" transform="translate(86.05 248.351)" stroke="rgba(0,0,0,0)" stroke-miterlimit="10" stroke-width="1" fill="url(#a)"/></g></svg>