<svg xmlns="http://www.w3.org/2000/svg" width="26" height="26" viewBox="0 0 26 26"><g transform="translate(-755 -571)"><circle cx="13" cy="13" r="13" transform="translate(755 571)" fill="#1c76ea"/><path d="M42.008,12.267a7.318,7.318,0,0,0,7.384-7.384V4.532A5.716,5.716,0,0,0,50.658,3.2a5.837,5.837,0,0,1-1.477.422,2.736,2.736,0,0,0,1.125-1.406,6.45,6.45,0,0,1-1.617.633A2.511,2.511,0,0,0,46.79,2a2.642,2.642,0,0,0-2.6,2.6,1.371,1.371,0,0,0,.07.563,7.27,7.27,0,0,1-5.344-2.743,2.693,2.693,0,0,0-.352,1.336,2.794,2.794,0,0,0,1.125,2.18,2.371,2.371,0,0,1-1.2-.352h0A2.57,2.57,0,0,0,40.6,8.118a2.168,2.168,0,0,1-.7.07,1.2,1.2,0,0,1-.492-.07,2.664,2.664,0,0,0,2.461,1.828,5.309,5.309,0,0,1-3.235,1.125A1.947,1.947,0,0,1,38,11a6.637,6.637,0,0,0,4.008,1.266" transform="translate(724.456 577.006)" fill="#fff" fill-rule="evenodd"/></g></svg>